HIERARCHY
ROOT hip
{
  OFFSET 0 0 0
  CHANNELS 6 Xposition Yposition Zposition Zrotation Yrotation Xrotation
  JOINT abdomen
  {
    OFFSET 0 20.6881 -0.73152
    CHANNELS 3 Zrotation Xrotation Yrotation
    JOINT chest
    {
      OFFSET 0 11.7043 -0.48768
      CHANNELS 3 Zrotation Xrotation Yrotation
      JOINT neck
      {
        OFFSET 0 22.1894 -2.19456
        CHANNELS 3 Zrotation Xrotation Yrotation
        JOINT head
        {
          OFFSET -0.24384 7.07133 1.2192
          CHANNELS 3 Zrotation Xrotation Yrotation
          JOINT leftEye
          {
            OFFSET 4.14528 8.04674 8.04672
            CHANNELS 3 Zrotation Xrotation Yrotation
            End Site
            {
              OFFSET 1 0 0
            }
          }
          JOINT rightEye
          {
            OFFSET -3.6576 8.04674 8.04672
            CHANNELS 3 Zrotation Xrotation Yrotation
            End Site
            {
              OFFSET 1 0 0
            }
          }
        }
      }
      JOINT rCollar
      {
        OFFSET -2.68224 19.2634 -4.8768
        CHANNELS 3 Zrotation Xrotation Yrotation
        JOINT rShldr
        {
          OFFSET -8.77824 -1.95073 1.46304
          CHANNELS 3 Zrotation Xrotation Yrotation
          JOINT rForeArm
          {
            OFFSET -28.1742 -1.7115 0.48768
            CHANNELS 3 Zrotation Xrotation Yrotation
            JOINT rHand
            {
              OFFSET -22.5879 0.773209 7.07136
              CHANNELS 3 Zrotation Xrotation Yrotation
              JOINT rThumb1
              {
                OFFSET -1.2192 -0.487915 3.41376
                CHANNELS 3 Zrotation Xrotation Yrotation
                JOINT rThumb2
                {
                  OFFSET -3.37035 -0.52449 3.41376
                  CHANNELS 3 Zrotation Xrotation Yrotation
                  End Site
                  {
                    OFFSET -1.78271 -1.18214 1.43049
                  }
                }
              }
              JOINT rIndex1
              {
                OFFSET -7.75947 0.938293 5.60832
                CHANNELS 3 Zrotation Xrotation Yrotation
                JOINT rIndex2
                {
                  OFFSET -2.54057 -0.884171 1.56538
                  CHANNELS 3 Zrotation Xrotation Yrotation
                  End Site
                  {
                    OFFSET -1.62519 -0.234802 1.16502
                  }
                }
              }
              JOINT rMid1
              {
                OFFSET -8.24714 1.18213 3.41376
                CHANNELS 3 Zrotation Xrotation Yrotation
                JOINT rMid2
                {
                  OFFSET -3.10165 -0.590103 1.0647
                  CHANNELS 3 Zrotation Xrotation Yrotation
                  End Site
                  {
                    OFFSET -2.48547 -0.328903 0.83742
                  }
                }
              }
              JOINT rRing1
              {
                OFFSET -8.82822 0.546677 1.51678
                CHANNELS 3 Zrotation Xrotation Yrotation
                JOINT rRing2
                {
                  OFFSET -2.60934 -0.819778 -0.0198488
                  CHANNELS 3 Zrotation Xrotation Yrotation
                  End Site
                  {
                    OFFSET -2.33842 -0.294052 0.168128
                  }
                }
              }
              JOINT rPinky1
              {
                OFFSET -8.27202 -0.0477905 -0.4584
                CHANNELS 3 Zrotation Xrotation Yrotation
                JOINT rPinky2
                {
                  OFFSET -1.82734 -0.647385 -0.700984
                  CHANNELS 3 Zrotation Xrotation Yrotation
                  End Site
                  {
                    OFFSET -1.69225 -0.51767 -0.607171
                  }
                }
              }
            }
          }
        }
      }
      JOINT lCollar
      {
        OFFSET 2.68224 19.2634 -4.8768
        CHANNELS 3 Zrotation Xrotation Yrotation
        JOINT lShldr
        {
          OFFSET 8.77824 -1.95073 1.46304
          CHANNELS 3 Zrotation Xrotation Yrotation
          JOINT lForeArm
          {
            OFFSET 28.1742 -1.7115 0.48768
            CHANNELS 3 Zrotation Xrotation Yrotation
            JOINT lHand
            {
              OFFSET 22.5879 0.773209 7.07136
              CHANNELS 3 Zrotation Xrotation Yrotation
              JOINT lThumb1
              {
                OFFSET 1.2192 -0.487915 3.41376
                CHANNELS 3 Zrotation Xrotation Yrotation
                JOINT lThumb2
                {
                  OFFSET 3.37035 -0.52449 3.41376
                  CHANNELS 3 Zrotation Xrotation Yrotation
                  End Site
                  {
                    OFFSET 1.78271 -1.18214 1.43049
                  }
                }
              }
              JOINT lIndex1
              {
                OFFSET 7.75947 0.938293 5.60832
                CHANNELS 3 Zrotation Xrotation Yrotation
                JOINT lIndex2
                {
                  OFFSET 2.54057 -0.884171 1.56538
                  CHANNELS 3 Zrotation Xrotation Yrotation
                  End Site
                  {
                    OFFSET 1.62519 -0.234802 1.16502
                  }
                }
              }
              JOINT lMid1
              {
                OFFSET 8.24714 1.18213 3.41376
                CHANNELS 3 Zrotation Xrotation Yrotation
                JOINT lMid2
                {
                  OFFSET 3.10165 -0.590103 1.0647
                  CHANNELS 3 Zrotation Xrotation Yrotation
                  End Site
                  {
                    OFFSET 2.48547 -0.328903 0.83742
                  }
                }
              }
              JOINT lRing1
              {
                OFFSET 8.82822 0.546677 1.51678
                CHANNELS 3 Zrotation Xrotation Yrotation
                JOINT lRing2
                {
                  OFFSET 2.60934 -0.819778 -0.0198488
                  CHANNELS 3 Zrotation Xrotation Yrotation
                  End Site
                  {
                    OFFSET 2.33842 -0.294052 0.168128
                  }
                }
              }
              JOINT lPinky1
              {
                OFFSET 8.27202 -0.0477905 -0.4584
                CHANNELS 3 Zrotation Xrotation Yrotation
                JOINT lPinky2
                {
                  OFFSET 1.82734 -0.647385 -0.700984
                  CHANNELS 3 Zrotation Xrotation Yrotation
                  End Site
                  {
                    OFFSET 1.69225 -0.51767 -0.607171
                  }
                }
              }
            }
          }
        }
      }
    }
  }
  JOINT rButtock
  {
    OFFSET -8.77824 4.35084 1.2192
    CHANNELS 3 Zrotation Xrotation Yrotation
    JOINT rThigh
    {
      OFFSET 0 -1.70687 -2.19456
      CHANNELS 3 Zrotation Xrotation Yrotation
      JOINT rShin
      {
        OFFSET 0 -36.8199 0.73152
        CHANNELS 3 Zrotation Xrotation Yrotation
        JOINT rFoot
        {
          OFFSET 0.73152 -45.1104 -5.12064
          CHANNELS 3 Zrotation Xrotation Yrotation
          End Site
          {
            OFFSET -1.1221 -3.69964 12.103
          }
        }
      }
    }
  }
  JOINT lButtock
  {
    OFFSET 8.77824 4.35084 1.2192
    CHANNELS 3 Zrotation Xrotation Yrotation
    JOINT lThigh
    {
      OFFSET 0 -1.70687 -2.19456
      CHANNELS 3 Zrotation Xrotation Yrotation
      JOINT lShin
      {
        OFFSET 0 -36.8199 0.73152
        CHANNELS 3 Zrotation Xrotation Yrotation
        JOINT lFoot
        {
          OFFSET -0.73152 -45.1104 -5.12064
          CHANNELS 3 Zrotation Xrotation Yrotation
          End Site
          {
            OFFSET 1.1221 -3.69964 12.103
          }
        }
      }
    }
  }
}
MOTION
Frames:	5
Frame Time:	0.03333
-28.1022 47.3769 83.49680000000001 -21.836775 -42.251343 23.316 11.394832 6.166574 -0.761974 2.031402 -7.355527 6.006875 11.153471 23.82841 106.998546 -33.425085 12.590081 -84.672545 0.000471 0.0 0.002744 0.000599 0.0 0.000442 -155.416744 -2.951387 161.718817 -111.206995 32.870644 70.081993 -42.771507 -10.799651 -170.25254 -169.985228 -29.08089 152.567864 -93.743902 37.964133 53.548447 -129.94255 -18.793918 76.714328 -77.666913 43.030734 64.538659 9.591913 -5.893738 -5.047274 -36.035623 51.723197 29.83236 2.71979 2.012968 0.348149 -145.11308 -0.626356 -178.930671 11.275013 13.958825 -7.35581 -124.854192 -29.0393 -122.621581 -145.814244 8.92255 -141.370193 -2.784198 -21.387989 4.257592 159.119627 -16.527041 -111.128714 -35.841273 2.714558 29.789507 -160.560274 -14.188902 -160.781494 2.813843 2.754258 -0.497934 -22.172588 -32.873255 13.024578 129.578083 16.761482 -108.785525 50.714957 53.655752 -33.023002 -6.533571 -20.414823 2.718802 163.805814 -6.165159 -143.475772 0.000411 0.022799 -0.005975 -10.617803 -4.353845 0.602031 146.205984 15.406135 142.730296 105.048552 -46.171014 103.697327 0.038529 0.000873 0.028897 -11.697213 12.144042 2.263748 11.722553 31.344003 46.499427 -22.465603 0.732153 -86.748048 0.038529 0.000873 0.028897 95.000167 -56.128494 94.15486 73.431496 72.41694 2.216006 -4.609994 -26.129013 -96.80587
-28.1943 47.185300000000005 83.666 -21.847377 -42.13388 23.438411 9.152328 2.805161 106.896908 -5.264948 -2.790867 -102.069291 -8.238887 28.59426 -114.932358 31.581563 31.066147 127.425212 0.001373 -0.0 -0.002965 0.002114 0.0 0.00224 4.209191 -43.443114 -8.383612 -174.861576 4.640783 -124.429693 68.89732 85.229934 151.234209 -147.414933 30.055858 128.634011 6.46417 -6.452462 -0.634503 -19.094183 18.258109 12.952925 -14.228388 19.202954 9.561465 8.806462 0.664024 -0.689424 -0.056514 0.167988 0.032907 -163.531384 -5.555284 143.434489 -145.099216 -1.521953 -178.649688 -76.034156 -77.982779 -97.69185 4.440092 12.865596 4.01771 -8.936421 -23.911001 -10.088201 44.040265 64.187054 -46.710298 -128.29059 -21.590535 -164.922123 -0.720998 -1.428153 -15.749695 37.608607 80.686455 -39.981649 -176.50597 -20.69516 -88.629573 -125.438707 -65.973323 -95.202065 55.105306 41.85859 -44.235091 -94.825662 -64.087986 -46.256407 167.29748 -27.76746 -145.261184 170.536426 -26.267236 -143.88981 145.123839 1.976137 179.74939 7.084768 -61.105285 27.896327 146.228495 15.470437 142.746595 -3.17813 2.398345 1.266791 179.990287 75.750591 0.006646 103.800208 79.418431 -0.0 -36.614986 19.315305 -162.428143 67.342367 41.033509 -177.812912 179.980266 75.749528 0.016237 -145.861783 -16.095139 91.096244 81.316949 -5.947502 -76.527412 -114.316548 -6.536467 19.636492
-28.3024 47.0365 83.8234 -21.737242 -42.096308 23.422245 9.056783 3.376203 88.459278 -4.880194 -4.455282 -83.719436 10.415897 26.678245 123.950186 -32.081279 22.132741 -99.028044 0.00348 -0.0 -0.001935 -0.002198 0.0 -0.001291 -120.997102 60.380452 124.635303 80.39805 -9.100241 56.315752 -17.345527 -26.303477 101.280223 -9.469876 -57.186533 -13.966901 -175.197892 -12.846101 89.808786 -17.962316 -43.436359 1.307795 -150.886425 -16.291627 120.977666 -62.211982 57.346404 46.01835 0.540612 -1.589889 -0.29653 -172.076723 -31.344261 144.10427 0.000908 0.063889 0.019504 11.412694 -44.455132 -5.49787 1.134442 3.040364 1.04535 1.34005 -2.952239 -0.922763 -3.457241 -62.668864 13.249171 109.261902 -12.343679 -148.095144 165.297557 -17.011492 164.981054 12.296527 66.337469 -18.734256 121.364132 30.328763 -71.95735 135.059866 -12.916138 -70.601223 77.666305 43.030541 -64.538986 163.058435 -7.95902 -113.912281 151.475034 17.8419 -137.540112 0.024407 9.298303 -1.847837 145.118728 0.186181 179.184999 119.361155 -72.51914 141.120179 -0.097603 0.258607 -0.090687 13.363202 -30.59848 14.473295 -179.986623 75.748625 -0.011006 101.296247 77.192466 163.710739 44.339251 -2.938439 102.189798 141.549116 -23.536159 -146.582843 179.998898 75.750351 0.000973 -143.492899 -16.726688 -111.248448 -89.752805 -13.33682 -173.724951 -99.096157 -56.482327 156.97997
-28.391699999999997 46.8691 83.97240000000001 -21.743763 -42.1902 23.431493 9.076221 2.596681 105.833492 -5.262018 -2.957856 -100.952153 -9.684899 19.559444 -60.553284 35.767804 0.710326 80.331329 0.001426 0.0 0.000159 0.001426 0.0 0.000159 -142.973688 39.431652 147.390135 -69.713531 11.380058 92.0472 5.931348 -1.012038 -142.255487 -149.711332 27.062682 130.90023 89.852681 -50.899311 38.252323 -52.820994 26.869429 12.613939 -117.902165 27.951031 99.679169 -10.023738 26.585559 0.420251 173.123157 -66.297753 137.613916 -163.407342 -4.597628 143.051257 -73.163214 -72.142865 -90.197952 -150.972685 -0.737906 176.459252 19.289907 66.824733 13.085114 -160.368808 52.371077 -148.828405 12.611802 40.564059 -14.370048 81.288559 28.620273 -50.512477 128.027753 -49.77566 149.366911 -5.816477 15.615409 -17.294048 169.149987 -6.830155 -89.915467 77.623951 4.497785 -26.441704 129.576659 16.760821 -108.785336 -1.022787 12.529256 5.988838 169.089794 -33.247278 -145.375416 -29.846542 -60.09049 -7.070481 -0.005141 1.772347 -0.556622 75.78287 78.820993 -89.041885 144.107648 8.782258 140.874427 21.299657 -36.81838 22.940586 -0.0 0.000679 0.000544 -12.920602 11.187803 104.093148 29.97217 -15.295482 -63.049787 -93.092146 59.40092 4.383468 -0.000264 0.000679 0.000339 96.420948 -55.817408 95.318755 101.774382 76.45063 41.280058 -30.017646 -1.655329 -160.832178
-28.4425 46.7095 84.07339999999999 -21.752381 -42.132531 23.544543 9.096383 2.745268 95.807306 -5.011467 -3.861693 -91.078416 11.258842 21.364498 93.901837 -32.88054 5.214094 -73.782998 -0.005781 -0.0 0.001416 -0.000105 -0.0 0.000743 -142.973589 39.431672 147.390209 7.062937 2.934908 75.258648 -14.728859 78.635598 -125.079515 -153.053835 21.884525 134.265634 -85.828968 38.630861 47.955787 -36.95199 -3.432131 39.805918 6.228704 -10.728269 -3.099802 -60.119636 48.370411 47.045523 68.981884 -80.15471 40.575058 7.092055 -12.337556 -1.029431 -145.063856 -3.223987 -178.113153 12.078477 26.389508 -5.988593 -150.034012 28.967385 -145.932194 -155.97868 37.070059 -146.04811 -0.023367 -0.138688 0.030255 1.362041 -2.857482 -68.640088 27.174243 6.644611 16.560967 -11.247608 -2.533227 -20.715007 -1.589815 -1.576015 0.223016 -46.318528 -71.967077 15.275763 0.3273 0.530015 -0.185981 65.769742 48.40255 -50.659302 -68.983547 -80.154145 -40.577736 166.127753 -12.879985 -143.822837 75.673719 -72.116721 92.828739 149.678929 -28.658797 179.561697 152.504483 38.522305 147.800088 -45.680182 80.122414 9.818579 0.003511 0.000579 0.001756 -12.426256 10.778299 145.108133 21.532666 -26.814266 -177.805174 89.823157 -16.262003 5.210388 179.99616 75.749063 0.003962 -143.305807 -16.842072 -89.332955 -84.712458 7.444266 136.091484 90.03703 -72.980788 -18.94828
